<svg width="20" height="20" viewBox="0 0 20 20" fill="none" xmlns="http://www.w3.org/2000/svg">
<path d="M10 17.5C8.01088 17.5 6.10322 16.7098 4.6967 15.3033C3.29018 13.8968 2.5 11.9891 2.5 10C2.5 8.01088 3.29018 6.10322 4.6967 4.6967C6.10322 3.29018 8.01088 2.5 10 2.5C14.1417 2.5 17.5 5.485 17.5 9.16667C17.5 10.05 17.105 10.8983 16.4017 11.5233C15.6983 12.1483 14.7442 12.5 13.75 12.5H11.6667C11.2949 12.494 10.9318 12.6125 10.6351 12.8367C10.3384 13.0608 10.1252 13.3777 10.0294 13.737C9.93362 14.0963 9.9607 14.4773 10.1064 14.8194C10.252 15.1615 10.5079 15.4451 10.8333 15.625C10.9997 15.7785 11.1138 15.9803 11.1596 16.2021C11.2054 16.4238 11.1806 16.6543 11.0886 16.8612C10.9967 17.068 10.8422 17.2409 10.647 17.3555C10.4517 17.4701 10.2255 17.5206 10 17.5Z" stroke="#515151" stroke-width="1.25" stroke-linecap="round" stroke-linejoin="round"/>
<path d="M6.25 8.75033C6.25 8.97134 6.3378 9.1833 6.49408 9.33958C6.65036 9.49586 6.86232 9.58366 7.08333 9.58366C7.30435 9.58366 7.51631 9.49586 7.67259 9.33958C7.82887 9.1833 7.91667 8.97134 7.91667 8.75033C7.91667 8.52931 7.82887 8.31735 7.67259 8.16107C7.51631 8.00479 7.30435 7.91699 7.08333 7.91699C6.86232 7.91699 6.65036 8.00479 6.49408 8.16107C6.3378 8.31735 6.25 8.52931 6.25 8.75033Z" stroke="#515151" stroke-width="1.25" stroke-linecap="round" stroke-linejoin="round"/>
<path d="M9.58301 6.25033C9.58301 6.47134 9.67081 6.6833 9.82709 6.83958C9.98337 6.99586 10.1953 7.08366 10.4163 7.08366C10.6374 7.08366 10.8493 6.99586 11.0056 6.83958C11.1619 6.6833 11.2497 6.47134 11.2497 6.25033C11.2497 6.02931 11.1619 5.81735 11.0056 5.66107C10.8493 5.50479 10.6374 5.41699 10.4163 5.41699C10.1953 5.41699 9.98337 5.50479 9.82709 5.66107C9.67081 5.81735 9.58301 6.02931 9.58301 6.25033Z" stroke="#515151" stroke-width="1.25" stroke-linecap="round" stroke-linejoin="round"/>
<path d="M12.917 8.75033C12.917 8.97134 13.0048 9.1833 13.1611 9.33958C13.3174 9.49586 13.5293 9.58366 13.7503 9.58366C13.9713 9.58366 14.1833 9.49586 14.3396 9.33958C14.4959 9.1833 14.5837 8.97134 14.5837 8.75033C14.5837 8.52931 14.4959 8.31735 14.3396 8.16107C14.1833 8.00479 13.9713 7.91699 13.7503 7.91699C13.5293 7.91699 13.3174 8.00479 13.1611 8.16107C13.0048 8.31735 12.917 8.52931 12.917 8.75033Z" stroke="#515151" stroke-width="1.25" stroke-linecap="round" stroke-linejoin="round"/>
</svg>
