<svg width="20" height="20" viewBox="0 0 20 20" fill="none" xmlns="http://www.w3.org/2000/svg">
<g id="Muestra">
<path id="Vector" d="M17.5007 2.5H2.50065C1.58398 2.5 0.833984 3.25 0.833984 4.16667V15.8333C0.833984 16.75 1.58398 17.5 2.50065 17.5H17.5007C18.4173 17.5 19.1673 16.75 19.1673 15.8333V4.16667C19.1673 3.25 18.4173 2.5 17.5007 2.5ZM17.5007 15.8333H2.50065V4.16667H17.5007V15.8333ZM6.66732 12.5C6.66732 11.1167 7.78398 10 9.16732 10C9.45898 10 9.74232 10.0583 10.0007 10.15V5H14.1673V6.66667H11.6673V12.525C11.6507 13.8917 10.5423 15 9.16732 15C7.78398 15 6.66732 13.8833 6.66732 12.5Z" fill="#222222" stroke="white" stroke-width="0.15"/>
</g>
</svg>
