<svg width="20" height="20" viewBox="0 0 20 20" fill="none" xmlns="http://www.w3.org/2000/svg">
<g id="Musica">
<path id="Vector" d="M2.5 14.168C2.5 14.831 2.76339 15.4669 3.23223 15.9357C3.70107 16.4046 4.33696 16.668 5 16.668C5.66304 16.668 6.29893 16.4046 6.76777 15.9357C7.23661 15.4669 7.5 14.831 7.5 14.168C7.5 13.5049 7.23661 12.869 6.76777 12.4002C6.29893 11.9314 5.66304 11.668 5 11.668C4.33696 11.668 3.70107 11.9314 3.23223 12.4002C2.76339 12.869 2.5 13.5049 2.5 14.168Z" stroke="#222222" stroke-width="1.25" stroke-linecap="round" stroke-linejoin="round"/>
<path id="Vector_2" d="M10.834 14.168C10.834 14.831 11.0974 15.4669 11.5662 15.9357C12.0351 16.4046 12.6709 16.668 13.334 16.668C13.997 16.668 14.6329 16.4046 15.1018 15.9357C15.5706 15.4669 15.834 14.831 15.834 14.168C15.834 13.5049 15.5706 12.869 15.1018 12.4002C14.6329 11.9314 13.997 11.668 13.334 11.668C12.6709 11.668 12.0351 11.9314 11.5662 12.4002C11.0974 12.869 10.834 13.5049 10.834 14.168Z" stroke="#222222" stroke-width="1.25" stroke-linecap="round" stroke-linejoin="round"/>
<path id="Vector_3" d="M7.5 14.1673V3.33398H15.8333V14.1673" stroke="#222222" stroke-width="1.25" stroke-linecap="round" stroke-linejoin="round"/>
<path id="Vector_4" d="M7.5 6.66797H15.8333" stroke="#222222" stroke-width="1.25" stroke-linecap="round" stroke-linejoin="round"/>
</g>
</svg>
