<svg width="20" height="20" viewBox="0 0 20 20" fill="none" xmlns="http://www.w3.org/2000/svg">
<path d="M4.16699 4.16667C4.16699 4.60869 4.34259 5.03262 4.65515 5.34518C4.96771 5.65774 5.39163 5.83333 5.83366 5.83333C6.27569 5.83333 6.69961 5.65774 7.01217 5.34518C7.32473 5.03262 7.50033 4.60869 7.50033 4.16667C7.50033 3.72464 7.32473 3.30072 7.01217 2.98816C6.69961 2.67559 6.27569 2.5 5.83366 2.5C5.39163 2.5 4.96771 2.67559 4.65515 2.98816C4.34259 3.30072 4.16699 3.72464 4.16699 4.16667Z" stroke="#515151" stroke-width="1.25" stroke-linecap="round" stroke-linejoin="round"/>
<path d="M4.16634 18.3337V14.167L3.33301 13.3337V10.0003C3.33301 9.77931 3.42081 9.56735 3.57709 9.41107C3.73337 9.25479 3.94533 9.16699 4.16634 9.16699H7.49967C7.72069 9.16699 7.93265 9.25479 8.08893 9.41107C8.24521 9.56735 8.33301 9.77931 8.33301 10.0003V13.3337L7.49967 14.167V18.3337" stroke="#515151" stroke-width="1.25" stroke-linecap="round" stroke-linejoin="round"/>
<path d="M12.5 4.16667C12.5 4.60869 12.6756 5.03262 12.9882 5.34518C13.3007 5.65774 13.7246 5.83333 14.1667 5.83333C14.6087 5.83333 15.0326 5.65774 15.3452 5.34518C15.6577 5.03262 15.8333 4.60869 15.8333 4.16667C15.8333 3.72464 15.6577 3.30072 15.3452 2.98816C15.0326 2.67559 14.6087 2.5 14.1667 2.5C13.7246 2.5 13.3007 2.67559 12.9882 2.98816C12.6756 3.30072 12.5 3.72464 12.5 4.16667Z" stroke="#515151" stroke-width="1.25" stroke-linecap="round" stroke-linejoin="round"/>
<path d="M12.4997 18.3337V15.0003H10.833L12.4997 10.0003C12.4997 9.77931 12.5875 9.56735 12.7438 9.41107C12.9 9.25479 13.112 9.16699 13.333 9.16699H14.9997C15.2207 9.16699 15.4327 9.25479 15.5889 9.41107C15.7452 9.56735 15.833 9.77931 15.833 10.0003L17.4997 15.0003H15.833V18.3337" stroke="#515151" stroke-width="1.25" stroke-linecap="round" stroke-linejoin="round"/>
</svg>
