<svg width="20" height="20" viewBox="0 0 20 20" fill="none" xmlns="http://www.w3.org/2000/svg">
<path d="M7.9165 9.16699H7.9265" stroke="#515151" stroke-width="1.25" stroke-linecap="round" stroke-linejoin="round"/>
<path d="M12.0835 9.16699H12.0935" stroke="#515151" stroke-width="1.25" stroke-linecap="round" stroke-linejoin="round"/>
<path d="M7.9165 12.5C8.18807 12.7772 8.51221 12.9974 8.86994 13.1477C9.22767 13.298 9.61181 13.3754 9.99984 13.3754C10.3879 13.3754 10.772 13.298 11.1297 13.1477C11.4875 12.9974 11.8116 12.7772 12.0832 12.5" stroke="#515151" stroke-width="1.25" stroke-linecap="round" stroke-linejoin="round"/>
<path d="M5.8335 4.16667H6.66683V2.5H13.3335V4.16667H14.1668C14.8299 4.16667 15.4658 4.43006 15.9346 4.8989C16.4034 5.36774 16.6668 6.00363 16.6668 6.66667V14.1667C16.6668 14.8297 16.4034 15.4656 15.9346 15.9344C15.4658 16.4033 14.8299 16.6667 14.1668 16.6667V17.5H5.8335V16.6667C5.17045 16.6667 4.53457 16.4033 4.06573 15.9344C3.59689 15.4656 3.3335 14.8297 3.3335 14.1667V6.66667C3.3335 6.00363 3.59689 5.36774 4.06573 4.8989C4.53457 4.43006 5.17045 4.16667 5.8335 4.16667Z" stroke="#515151" stroke-width="1.25" stroke-linecap="round" stroke-linejoin="round"/>
</svg>
