<svg width="13" height="16" viewBox="0 0 13 16" fill="none" xmlns="http://www.w3.org/2000/svg">
<path d="M1.66634 1.66699H1.33301V2.00033V11.0003H0.666341V2.00033C0.666341 1.45109 1.1171 1.00033 1.66634 1.00033H9.33301V1.66699H1.66634ZM11.6663 14.3337H11.9997V14.0003V4.66699V4.33366H11.6663H4.33301H3.99967V4.66699V14.0003V14.3337H4.33301H11.6663ZM4.33301 3.66699H11.6663C12.2156 3.66699 12.6663 4.11775 12.6663 4.66699V14.0003C12.6663 14.5496 12.2156 15.0003 11.6663 15.0003H4.33301C3.78377 15.0003 3.33301 14.5496 3.33301 14.0003V4.66699C3.33301 4.11775 3.78377 3.66699 4.33301 3.66699Z" fill="#1A01A6" stroke="#1A01A6" stroke-width="0.666667"/>
</svg>
