<svg width="34" height="31" viewBox="0 0 34 31" fill="none" xmlns="http://www.w3.org/2000/svg">
<path d="M12 0.333496L8.94998 3.66683H3.66665C1.83331 3.66683 0.333313 5.16683 0.333313 7.00016V27.0002C0.333313 28.8335 1.83331 30.3335 3.66665 30.3335H30.3333C32.1666 30.3335 33.6666 28.8335 33.6666 27.0002V7.00016C33.6666 5.16683 32.1666 3.66683 30.3333 3.66683H25.05L22 0.333496H12ZM17 25.3335C12.4 25.3335 8.66665 21.6002 8.66665 17.0002C8.66665 12.4002 12.4 8.66683 17 8.66683C21.6 8.66683 25.3333 12.4002 25.3333 17.0002C25.3333 21.6002 21.6 25.3335 17 25.3335Z" fill="#222222"/>
</svg>
