<svg width="39" height="36" viewBox="0 0 39 36" fill="none" xmlns="http://www.w3.org/2000/svg">
<path d="M30.0548 0.597656L30.6939 5.94827C27.5126 2.68297 22.4311 0.653712 17.5121 0.653712C7.84234 0.650909 0 8.49325 0 18.1658C0 27.8384 7.84234 35.6808 17.5149 35.6808C22.4339 35.6808 27.5154 33.6515 30.6967 30.3862L30.0576 35.6808H38.7324V0.597656H30.0576H30.0548ZM17.5121 26.5323C12.893 26.5323 9.14566 22.7877 9.14566 18.1658C9.14566 13.544 12.8902 9.79937 17.5121 9.79937C22.134 9.79937 25.8786 13.544 25.8786 18.1658C25.8786 22.7877 22.134 26.5323 17.5121 26.5323Z" fill="#1A01A6"/>
</svg>
